<?xml version="1.0" standalone="no"?>
<!DOCTYPE svg PUBLIC "-//W3C//DTD SVG 20010904//EN"
 "http://www.w3.org/TR/2001/REC-SVG-20010904/DTD/svg10.dtd">
<svg version="1.0" xmlns="http://www.w3.org/2000/svg"
 width="700.000000pt" height="700.000000pt" viewBox="0 0 700.000000 700.000000"
 preserveAspectRatio="xMidYMid meet">
<metadata>
Created by potrace 1.14, written by Peter Selinger 2001-2017
</metadata>
<g transform="translate(0.000000,700.000000) scale(0.100000,-0.100000)"
fill="#000000" stroke="none">
<path d="M555 6155 c-270 -49 -483 -258 -539 -528 -14 -68 -16 -256 -15 -1724
1 -1581 1 -1651 19 -1725 47 -192 178 -356 355 -446 94 -47 166 -63 313 -69
l142 -6 0 -117 c0 -135 21 -232 71 -331 33 -66 98 -156 143 -197 47 -43 155
-110 212 -132 140 -52 4 -49 2654 -49 1560 0 2487 4 2524 10 214 36 412 187
503 385 62 136 57 -1 60 1834 3 1847 6 1740 -60 1883 -94 200 -253 327 -481
384 -12 3 -79 7 -151 10 -71 3 -131 6 -132 7 0 0 -3 62 -6 136 -5 152 -8 169
-44 260 -83 209 -264 363 -488 414 -63 14 -313 15 -2540 15 -1959 -1 -2485 -3
-2540 -14z m4936 -497 c54 -3 73 -9 103 -31 55 -42 69 -78 72 -184 1 -51 -2
-95 -6 -98 -4 -3 -955 -5 -2111 -5 -2335 -1 -2184 4 -2334 -68 -182 -87 -310
-243 -364 -441 -20 -73 -21 -99 -21 -1365 0 -709 -2 -1291 -4 -1294 -3 -2 -46
-4 -98 -4 -104 -1 -138 11 -181 62 -15 17 -29 47 -33 68 -4 20 -8 757 -8 1638
l0 1601 23 36 c12 20 37 47 54 59 l32 23 980 5 c987 5 3773 3 3896 -2z m899
-838 c36 -18 70 -51 88 -85 14 -27 16 -194 16 -1629 1 -1135 -2 -1612 -10
-1643 -13 -50 -42 -85 -90 -108 -29 -14 -275 -15 -2479 -15 -2055 0 -2450 2
-2478 14 -41 17 -76 55 -91 99 -9 26 -11 425 -11 1643 l0 1609 24 41 c30 53
70 76 145 83 34 3 1141 6 2461 5 1928 -1 2405 -3 2425 -14z"/>
<path d="M5407 4584 c-1 -1 -29 -4 -62 -7 -180 -17 -357 -119 -471 -271 -197
-262 -181 -617 39 -872 42 -49 145 -124 219 -159 432 -205 945 97 975 575 20
318 -174 602 -478 699 -53 17 -213 43 -222 35z m118 -543 c143 -102 69 -327
-106 -324 -148 2 -228 177 -134 295 56 69 164 83 240 29z"/>
<path d="M3112 3445 c-42 -18 -1402 -1376 -1427 -1424 -23 -45 -23 -117 0
-161 25 -48 148 -168 190 -186 48 -20 109 -18 153 5 20 11 267 250 547 531
312 313 523 517 544 526 40 17 96 18 134 1 15 -7 261 -245 546 -529 349 -349
529 -522 554 -533 89 -37 162 -10 264 98 130 137 126 203 -21 354 l-89 93 107
107 106 107 370 -369 c203 -204 384 -378 402 -387 39 -21 106 -23 151 -4 43
18 176 151 194 195 19 45 19 111 0 148 -23 44 -1007 1024 -1044 1039 -41 18
-105 18 -146 0 -18 -7 -137 -118 -265 -246 l-233 -234 -427 427 c-292 292
-439 431 -464 442 -46 19 -103 19 -146 0z"/>
</g>
</svg>
